<?xml version="1.0" encoding="utf-8"?>
<!-- Generator: Adobe Illustrator 19.0.0, SVG Export Plug-In . SVG Version: 6.00 Build 0)  -->
<svg version="1.1"
	 id="svg8" xmlns:dc="http://purl.org/dc/elements/1.1/" xmlns:cc="http://creativecommons.org/ns#" xmlns:inkscape="http://www.inkscape.org/namespaces/inkscape" xmlns:sodipodi="http://sodipodi.sourceforge.net/DTD/sodipodi-0.dtd" xmlns:svg="http://www.w3.org/2000/svg" xmlns:rdf="http://www.w3.org/1999/02/22-rdf-syntax-ns#" sodipodi:docname="CameraButtonStand.svg" inkscape:version="0.91 r13725"
	 xmlns="http://www.w3.org/2000/svg" xmlns:xlink="http://www.w3.org/1999/xlink" x="0px" y="0px" viewBox="-565 876.1 720 841.7"
	 style="enable-background:new -565 876.1 720 841.7;" xml:space="preserve">
<style type="text/css">
	.st0{fill:none;}
	.st1{fill:none;stroke:#231F20;stroke-width:0.5;}
	.st2{fill:none;stroke:#231F20;stroke-width:0.3;stroke-linejoin:bevel;}
	.st3{fill:none;stroke:#231F20;stroke-width:0.3;}
	.st4{fill:none;stroke:#000000;stroke-width:3.527800e-004;stroke-linecap:round;stroke-linejoin:round;}
	.st5{fill:none;stroke:#000000;stroke-width:1.333330e-003;stroke-linecap:round;stroke-linejoin:round;}
	.st6{fill:none;stroke:#0000FF;stroke-width:3.527800e-004;}
	.st7{fill:url(#SVGID_1_);}
	.st8{fill:url(#SVGID_2_);}
</style>
<pattern  x="-565" y="1718" width="72" height="72" patternUnits="userSpaceOnUse" id="Burlap" viewBox="12.8 -83 72 72" style="overflow:visible;">
	<g>
		<polygon class="st0" points="12.8,-83 84.8,-83 84.8,-11 12.8,-11 		"/>
		<g>
			<line class="st1" x1="83.2" y1="-10.8" x2="97.8" y2="-10.8"/>
		</g>
		<g>
			<line class="st1" x1="11.2" y1="-10.8" x2="25.8" y2="-10.8"/>
		</g>
		<g>
			<line class="st1" x1="81.3" y1="-76" x2="96" y2="-76"/>
			<line class="st1" x1="79.7" y1="-69.3" x2="94.3" y2="-69.3"/>
			<line class="st1" x1="83.2" y1="-82.8" x2="97.8" y2="-82.8"/>
			<line class="st1" x1="84.2" y1="-52" x2="98.8" y2="-52"/>
			<line class="st1" x1="88.7" y1="-80.2" x2="74" y2="-80.2"/>
			<line class="st1" x1="92.2" y1="-74.7" x2="77.5" y2="-74.7"/>
			<line class="st1" x1="74.3" y1="-66.5" x2="89" y2="-66.5"/>
			<line class="st1" x1="78" y1="-17.5" x2="92.7" y2="-17.5"/>
			<line class="st1" x1="74.3" y1="-12.8" x2="89" y2="-12.8"/>
			<line class="st1" x1="79.7" y1="-14.8" x2="94.3" y2="-14.8"/>
			<line class="st1" x1="75" y1="-19.8" x2="89.7" y2="-19.8"/>
			<line class="st1" x1="79.7" y1="-28.5" x2="94.3" y2="-28.5"/>
			<line class="st1" x1="76.3" y1="-24.2" x2="91" y2="-24.2"/>
			<line class="st1" x1="89.8" y1="-59.7" x2="75.2" y2="-59.7"/>
			<line class="st1" x1="90.3" y1="-56.2" x2="75.7" y2="-56.2"/>
			<line class="st1" x1="93.3" y1="-54.2" x2="78.7" y2="-54.2"/>
			<line class="st1" x1="79" y1="-64.3" x2="93.7" y2="-64.3"/>
			<line class="st1" x1="89.5" y1="-50.2" x2="74.8" y2="-50.2"/>
			<line class="st1" x1="93.5" y1="-48.2" x2="78.8" y2="-48.2"/>
			<line class="st1" x1="87.8" y1="-45.8" x2="73.2" y2="-45.8"/>
			<line class="st1" x1="76" y1="-31.5" x2="90.7" y2="-31.5"/>
			<line class="st1" x1="78" y1="-35.8" x2="92.7" y2="-35.8"/>
			<line class="st1" x1="78" y1="-41.2" x2="92.7" y2="-41.2"/>
			<line class="st1" x1="80.7" y1="-38.5" x2="95.3" y2="-38.5"/>
			<line class="st1" x1="82.7" y1="-43.5" x2="97.3" y2="-43.5"/>
		</g>
		<g>
			<line class="st1" x1="22.5" y1="-77.3" x2="22.5" y2="-62.7"/>
			<line class="st1" x1="25" y1="-74.3" x2="25" y2="-59.7"/>
			<line class="st1" x1="21.3" y1="-64.7" x2="21.3" y2="-50"/>
			<line class="st1" x1="28.7" y1="-64.3" x2="28.7" y2="-49.7"/>
			<line class="st1" x1="19" y1="-71.3" x2="19" y2="-56.7"/>
			<line class="st1" x1="31" y1="-74.3" x2="31" y2="-59.7"/>
			<line class="st1" x1="36.5" y1="-74.3" x2="36.5" y2="-59.7"/>
			<line class="st1" x1="37.8" y1="-70.7" x2="37.8" y2="-56"/>
			<line class="st1" x1="34" y1="-79.8" x2="34" y2="-65.2"/>
			<line class="st1" x1="27.5" y1="-77.8" x2="27.5" y2="-63.2"/>
			<line class="st1" x1="14" y1="-72" x2="28.7" y2="-72"/>
			<line class="st1" x1="9.3" y1="-76" x2="24" y2="-76"/>
			<line class="st1" x1="7.7" y1="-69.3" x2="22.3" y2="-69.3"/>
			<line class="st1" x1="26" y1="-75.7" x2="40.7" y2="-75.7"/>
			<line class="st1" x1="20.8" y1="-73.8" x2="35.5" y2="-73.8"/>
			<line class="st1" x1="24.5" y1="-65.7" x2="39.2" y2="-65.7"/>
			<line class="st1" x1="17.8" y1="-68.2" x2="32.5" y2="-68.2"/>
			<line class="st1" x1="51.3" y1="-73" x2="51.3" y2="-58.3"/>
			<line class="st1" x1="48.8" y1="-70" x2="48.8" y2="-55.3"/>
			<line class="st1" x1="54.8" y1="-67" x2="54.8" y2="-52.3"/>
			<line class="st1" x1="56.2" y1="-59.7" x2="56.2" y2="-45"/>
			<line class="st1" x1="57.5" y1="-67" x2="57.5" y2="-52.3"/>
			<line class="st1" x1="42.8" y1="-70" x2="42.8" y2="-55.3"/>
			<line class="st1" x1="32.7" y1="-66.7" x2="32.7" y2="-52"/>
			<line class="st1" x1="41.2" y1="-76.5" x2="41.2" y2="-61.8"/>
			<line class="st1" x1="39.5" y1="-79.8" x2="39.5" y2="-65.2"/>
			<line class="st1" x1="46.3" y1="-74.8" x2="46.3" y2="-60.2"/>
			<line class="st1" x1="54.8" y1="-68.3" x2="40.2" y2="-68.3"/>
			<line class="st1" x1="46.5" y1="-70.3" x2="31.8" y2="-70.3"/>
			<line class="st1" x1="55.3" y1="-64.8" x2="40.7" y2="-64.8"/>
			<line class="st1" x1="49.7" y1="-61" x2="35" y2="-61"/>
			<line class="st1" x1="58.3" y1="-62.8" x2="43.7" y2="-62.8"/>
			<line class="st1" x1="83.7" y1="-81.8" x2="83.7" y2="-67.2"/>
			<line class="st1" x1="79" y1="-81.8" x2="79" y2="-67.2"/>
			<line class="st1" x1="71.2" y1="-81.8" x2="71.2" y2="-67.2"/>
			<line class="st1" x1="88.7" y1="-80.2" x2="74" y2="-80.2"/>
			<line class="st1" x1="87.2" y1="-77.7" x2="72.5" y2="-77.7"/>
			<line class="st1" x1="83.2" y1="-73.2" x2="68.5" y2="-73.2"/>
			<line class="st1" x1="75.2" y1="-74.5" x2="60.5" y2="-74.5"/>
			<line class="st1" x1="92.2" y1="-74.7" x2="77.5" y2="-74.7"/>
			<line class="st1" x1="54.3" y1="-80.5" x2="54.3" y2="-65.8"/>
			<line class="st1" x1="58.8" y1="-77.5" x2="58.8" y2="-62.8"/>
			<line class="st1" x1="52.8" y1="-74.5" x2="52.8" y2="-59.8"/>
			<line class="st1" x1="65.5" y1="-78.2" x2="65.5" y2="-63.5"/>
			<line class="st1" x1="75" y1="-74.2" x2="75" y2="-59.5"/>
			<line class="st1" x1="67.8" y1="-83" x2="67.8" y2="-68.3"/>
			<line class="st1" x1="63" y1="-82" x2="63" y2="-67.3"/>
			<line class="st1" x1="52.7" y1="-80.7" x2="67.3" y2="-80.7"/>
			<line class="st1" x1="59.8" y1="-78.8" x2="74.5" y2="-78.8"/>
			<line class="st1" x1="51.5" y1="-77.2" x2="66.2" y2="-77.2"/>
			<line class="st1" x1="52.3" y1="-72.3" x2="67" y2="-72.3"/>
			<line class="st1" x1="58" y1="-67.5" x2="72.7" y2="-67.5"/>
			<line class="st1" x1="61.7" y1="-69.5" x2="76.3" y2="-69.5"/>
			<line class="st1" x1="49.3" y1="-70.3" x2="64" y2="-70.3"/>
			<line class="st1" x1="44.3" y1="-81.3" x2="44.3" y2="-66.7"/>
			<line class="st1" x1="42.7" y1="-82" x2="42.7" y2="-67.3"/>
			<line class="st1" x1="36.7" y1="-81.3" x2="36.7" y2="-66.7"/>
			<line class="st1" x1="14.8" y1="-44.7" x2="14.8" y2="-30"/>
			<line class="st1" x1="14.3" y1="-61.2" x2="14.3" y2="-46.5"/>
			<line class="st1" x1="15.5" y1="-73.2" x2="15.5" y2="-58.5"/>
			<line class="st1" x1="13.5" y1="-75.7" x2="13.5" y2="-61"/>
			<line class="st1" x1="11.2" y1="-82.8" x2="25.8" y2="-82.8"/>
			<line class="st1" x1="19.5" y1="-81.2" x2="34.2" y2="-81.2"/>
			<line class="st1" x1="14" y1="-78.7" x2="28.7" y2="-78.7"/>
			<line class="st1" x1="36" y1="-78" x2="50.7" y2="-78"/>
			<line class="st1" x1="31" y1="-79.3" x2="45.7" y2="-79.3"/>
			<line class="st1" x1="33" y1="-82" x2="47.7" y2="-82"/>
			<line class="st1" x1="38.3" y1="-73.7" x2="53" y2="-73.7"/>
			<line class="st1" x1="54.5" y1="-58.8" x2="39.8" y2="-58.8"/>
			<line class="st1" x1="58.5" y1="-56.8" x2="43.8" y2="-56.8"/>
			<line class="st1" x1="52.8" y1="-54.5" x2="38.2" y2="-54.5"/>
			<line class="st1" x1="31" y1="-48.7" x2="31" y2="-34"/>
			<line class="st1" x1="34.5" y1="-42.7" x2="34.5" y2="-28"/>
			<line class="st1" x1="28.8" y1="-46.3" x2="14.2" y2="-46.3"/>
			<line class="st1" x1="39.8" y1="-42.3" x2="25.2" y2="-42.3"/>
			<line class="st1" x1="35" y1="-40.5" x2="20.3" y2="-40.5"/>
			<line class="st1" x1="38" y1="-38.5" x2="23.3" y2="-38.5"/>
			<line class="st1" x1="50.8" y1="-57.5" x2="50.8" y2="-42.8"/>
			<line class="st1" x1="52.2" y1="-51.7" x2="52.2" y2="-37"/>
			<line class="st1" x1="36" y1="-56.2" x2="36" y2="-41.5"/>
			<line class="st1" x1="39.2" y1="-61.5" x2="39.2" y2="-46.8"/>
			<line class="st1" x1="44.5" y1="-53.2" x2="44.5" y2="-38.5"/>
			<line class="st1" x1="47.5" y1="-58.7" x2="47.5" y2="-44"/>
			<line class="st1" x1="45.8" y1="-59" x2="45.8" y2="-44.3"/>
			<line class="st1" x1="41" y1="-56.7" x2="41" y2="-42"/>
			<line class="st1" x1="37.7" y1="-43.2" x2="52.3" y2="-43.2"/>
			<line class="st1" x1="40.3" y1="-41.8" x2="55" y2="-41.8"/>
			<line class="st1" x1="43" y1="-44.5" x2="57.7" y2="-44.5"/>
			<line class="st1" x1="43" y1="-49.8" x2="57.7" y2="-49.8"/>
			<line class="st1" x1="45.7" y1="-47.2" x2="60.3" y2="-47.2"/>
			<line class="st1" x1="59" y1="-49.8" x2="73.7" y2="-49.8"/>
			<line class="st1" x1="47.7" y1="-52.2" x2="62.3" y2="-52.2"/>
			<line class="st1" x1="74.3" y1="-66.5" x2="89" y2="-66.5"/>
			<line class="st1" x1="58.3" y1="-59.5" x2="73" y2="-59.5"/>
			<line class="st1" x1="56.3" y1="-61.8" x2="71" y2="-61.8"/>
			<line class="st1" x1="29" y1="-46" x2="43.7" y2="-46"/>
			<line class="st1" x1="29.3" y1="-48" x2="44" y2="-48"/>
			<line class="st1" x1="43.2" y1="-37.2" x2="28.5" y2="-37.2"/>
			<line class="st1" x1="34.8" y1="-62.2" x2="34.8" y2="-47.5"/>
			<line class="st1" x1="32.7" y1="-65.7" x2="32.7" y2="-51"/>
			<line class="st1" x1="23.7" y1="-57" x2="38.3" y2="-57"/>
			<line class="st1" x1="16.7" y1="-58.3" x2="31.3" y2="-58.3"/>
			<line class="st1" x1="18.3" y1="-60.3" x2="33" y2="-60.3"/>
			<line class="st1" x1="17" y1="-63" x2="31.7" y2="-63"/>
			<line class="st1" x1="26.3" y1="-63" x2="41" y2="-63"/>
			<line class="st1" x1="19.8" y1="-39.3" x2="19.8" y2="-24.7"/>
			<line class="st1" x1="22.3" y1="-36.3" x2="22.3" y2="-21.7"/>
			<line class="st1" x1="18.7" y1="-26.7" x2="18.7" y2="-12"/>
			<line class="st1" x1="15.7" y1="-29" x2="15.7" y2="-14.3"/>
			<line class="st1" x1="26" y1="-26.3" x2="26" y2="-11.7"/>
			<line class="st1" x1="28.3" y1="-36.3" x2="28.3" y2="-21.7"/>
			<line class="st1" x1="37.8" y1="-44.7" x2="37.8" y2="-30"/>
			<line class="st1" x1="71.3" y1="-23" x2="71.3" y2="-8.3"/>
			<line class="st1" x1="74.2" y1="-35.7" x2="74.2" y2="-21"/>
			<line class="st1" x1="70.8" y1="-19" x2="56.2" y2="-19"/>
			<line class="st1" x1="75.3" y1="-14.8" x2="60.7" y2="-14.8"/>
			<line class="st1" x1="72.7" y1="-12.8" x2="58" y2="-12.8"/>
			<line class="st1" x1="76.7" y1="-16.5" x2="62" y2="-16.5"/>
			<line class="st1" x1="76.3" y1="-30.5" x2="76.3" y2="-15.8"/>
			<line class="st1" x1="72.8" y1="-24.5" x2="72.8" y2="-9.8"/>
			<line class="st1" x1="61.5" y1="-35.2" x2="61.5" y2="-20.5"/>
			<line class="st1" x1="59.8" y1="-32.5" x2="59.8" y2="-17.8"/>
			<line class="st1" x1="57.8" y1="-26.7" x2="57.8" y2="-12"/>
			<line class="st1" x1="80" y1="-28.7" x2="80" y2="-14"/>
			<line class="st1" x1="81.7" y1="-34.7" x2="81.7" y2="-20"/>
			<line class="st1" x1="84" y1="-37" x2="84" y2="-22.3"/>
			<line class="st1" x1="78" y1="-17.5" x2="92.7" y2="-17.5"/>
			<line class="st1" x1="74.3" y1="-12.8" x2="89" y2="-12.8"/>
			<line class="st1" x1="79.7" y1="-14.8" x2="94.3" y2="-14.8"/>
			<line class="st1" x1="75" y1="-19.8" x2="89.7" y2="-19.8"/>
			<line class="st1" x1="72" y1="-26.5" x2="86.7" y2="-26.5"/>
			<line class="st1" x1="79.7" y1="-28.5" x2="94.3" y2="-28.5"/>
			<line class="st1" x1="76.3" y1="-24.2" x2="91" y2="-24.2"/>
			<line class="st1" x1="78.2" y1="-19" x2="78.2" y2="-4.3"/>
			<line class="st1" x1="82.5" y1="-21.7" x2="82.5" y2="-7"/>
			<line class="st1" x1="16.3" y1="-34.7" x2="31" y2="-34.7"/>
			<line class="st1" x1="21" y1="-15.3" x2="35.7" y2="-15.3"/>
			<line class="st1" x1="17.8" y1="-32.2" x2="32.5" y2="-32.2"/>
			<line class="st1" x1="21.8" y1="-27.7" x2="36.5" y2="-27.7"/>
			<line class="st1" x1="32.8" y1="-30.7" x2="47.5" y2="-30.7"/>
			<line class="st1" x1="13.7" y1="-30.5" x2="28.3" y2="-30.5"/>
			<line class="st1" x1="30.5" y1="-31" x2="30.5" y2="-16.3"/>
			<line class="st1" x1="45.2" y1="-33.3" x2="30.5" y2="-33.3"/>
			<line class="st1" x1="47" y1="-23" x2="32.3" y2="-23"/>
			<line class="st1" x1="48.7" y1="-21.3" x2="34" y2="-21.3"/>
			<line class="st1" x1="47.2" y1="-26.3" x2="32.5" y2="-26.3"/>
			<line class="st1" x1="51.8" y1="-29" x2="37.2" y2="-29"/>
			<line class="st1" x1="32.2" y1="-24.2" x2="32.2" y2="-9.5"/>
			<line class="st1" x1="25.3" y1="-45" x2="25.3" y2="-30.3"/>
			<line class="st1" x1="23.7" y1="-50.3" x2="23.7" y2="-35.7"/>
			<line class="st1" x1="26.7" y1="-53.3" x2="26.7" y2="-38.7"/>
			<line class="st1" x1="21.3" y1="-51.7" x2="21.3" y2="-37"/>
			<line class="st1" x1="17.7" y1="-50.7" x2="17.7" y2="-36"/>
			<line class="st1" x1="19.7" y1="-55.3" x2="19.7" y2="-40.7"/>
			<line class="st1" x1="21" y1="-19" x2="35.7" y2="-19"/>
			<line class="st1" x1="13.8" y1="-20.7" x2="28.5" y2="-20.7"/>
			<line class="st1" x1="15.7" y1="-22.3" x2="30.3" y2="-22.3"/>
			<line class="st1" x1="42.3" y1="-33" x2="42.3" y2="-18.3"/>
			<line class="st1" x1="39.3" y1="-40" x2="39.3" y2="-25.3"/>
			<line class="st1" x1="38.7" y1="-23.3" x2="38.7" y2="-8.7"/>
			<line class="st1" x1="46" y1="-23" x2="46" y2="-8.3"/>
			<line class="st1" x1="36.3" y1="-30" x2="36.3" y2="-15.3"/>
			<line class="st1" x1="48.3" y1="-33" x2="48.3" y2="-18.3"/>
			<line class="st1" x1="43.8" y1="-24.2" x2="43.8" y2="-9.5"/>
			<line class="st1" x1="40.8" y1="-28.2" x2="40.8" y2="-13.5"/>
			<line class="st1" x1="41" y1="-12" x2="55.7" y2="-12"/>
			<line class="st1" x1="43" y1="-14.3" x2="57.7" y2="-14.3"/>
			<line class="st1" x1="50" y1="-25.3" x2="50" y2="-10.7"/>
			<line class="st1" x1="45.3" y1="-37.7" x2="45.3" y2="-23"/>
			<line class="st1" x1="67.8" y1="-25.3" x2="67.8" y2="-10.7"/>
			<line class="st1" x1="60.8" y1="-17.3" x2="60.8" y2="-2.7"/>
			<line class="st1" x1="47" y1="-42.3" x2="47" y2="-27.7"/>
			<line class="st1" x1="41" y1="-15.7" x2="55.7" y2="-15.7"/>
			<line class="st1" x1="34" y1="-17" x2="48.7" y2="-17"/>
			<line class="st1" x1="26" y1="-13.7" x2="40.7" y2="-13.7"/>
			<line class="st1" x1="20.7" y1="-12.3" x2="35.3" y2="-12.3"/>
			<line class="st1" x1="35.7" y1="-19" x2="50.3" y2="-19"/>
			<line class="st1" x1="14.3" y1="-25" x2="29" y2="-25"/>
			<line class="st1" x1="23.7" y1="-25" x2="38.3" y2="-25"/>
			<line class="st1" x1="29.3" y1="-52.2" x2="44" y2="-52.2"/>
			<line class="st1" x1="20.7" y1="-55" x2="35.3" y2="-55"/>
			<line class="st1" x1="19.5" y1="-49.7" x2="34.2" y2="-49.7"/>
			<line class="st1" x1="12.2" y1="-52" x2="26.8" y2="-52"/>
			<line class="st1" x1="60" y1="-65.7" x2="60" y2="-51"/>
			<line class="st1" x1="63.7" y1="-55.7" x2="63.7" y2="-41"/>
			<line class="st1" x1="65.7" y1="-63" x2="65.7" y2="-48.3"/>
			<line class="st1" x1="71.5" y1="-65.7" x2="71.5" y2="-51"/>
			<line class="st1" x1="72.8" y1="-62" x2="72.8" y2="-47.3"/>
			<line class="st1" x1="69" y1="-71.2" x2="69" y2="-56.5"/>
			<line class="st1" x1="61.5" y1="-69.2" x2="61.5" y2="-54.5"/>
			<line class="st1" x1="59.5" y1="-57" x2="74.2" y2="-57"/>
			<line class="st1" x1="53.2" y1="-34.7" x2="53.2" y2="-20"/>
			<line class="st1" x1="54.5" y1="-27.3" x2="54.5" y2="-12.7"/>
			<line class="st1" x1="51.2" y1="-37.7" x2="51.2" y2="-23"/>
			<line class="st1" x1="55.8" y1="-34.7" x2="55.8" y2="-20"/>
			<line class="st1" x1="77.8" y1="-61.3" x2="77.8" y2="-46.7"/>
			<line class="st1" x1="67.7" y1="-58" x2="67.7" y2="-43.3"/>
			<line class="st1" x1="76.2" y1="-67.8" x2="76.2" y2="-53.2"/>
			<line class="st1" x1="79.8" y1="-72.5" x2="79.8" y2="-57.8"/>
			<line class="st1" x1="81.3" y1="-70.3" x2="81.3" y2="-55.7"/>
			<line class="st1" x1="83.3" y1="-65.5" x2="83.3" y2="-50.8"/>
			<line class="st1" x1="89.8" y1="-59.7" x2="75.2" y2="-59.7"/>
			<line class="st1" x1="82.8" y1="-62.7" x2="68.2" y2="-62.7"/>
			<line class="st1" x1="77.2" y1="-65" x2="62.5" y2="-65"/>
			<line class="st1" x1="81.5" y1="-71.3" x2="66.8" y2="-71.3"/>
			<line class="st1" x1="90.3" y1="-56.2" x2="75.7" y2="-56.2"/>
			<line class="st1" x1="84.7" y1="-52.3" x2="70" y2="-52.3"/>
			<line class="st1" x1="93.3" y1="-54.2" x2="78.7" y2="-54.2"/>
			<line class="st1" x1="54.7" y1="-48.2" x2="54.7" y2="-33.5"/>
			<line class="st1" x1="57.2" y1="-45.2" x2="57.2" y2="-30.5"/>
			<line class="st1" x1="72.5" y1="-42.2" x2="72.5" y2="-27.5"/>
			<line class="st1" x1="59.7" y1="-48.7" x2="59.7" y2="-34"/>
			<line class="st1" x1="50.7" y1="-40" x2="65.3" y2="-40"/>
			<line class="st1" x1="56.3" y1="-35.2" x2="71" y2="-35.2"/>
			<line class="st1" x1="79" y1="-64.3" x2="93.7" y2="-64.3"/>
			<line class="st1" x1="89.5" y1="-50.2" x2="74.8" y2="-50.2"/>
			<line class="st1" x1="93.5" y1="-48.2" x2="78.8" y2="-48.2"/>
			<line class="st1" x1="87.8" y1="-45.8" x2="73.2" y2="-45.8"/>
			<line class="st1" x1="66" y1="-40" x2="66" y2="-25.3"/>
			<line class="st1" x1="69.5" y1="-34" x2="69.5" y2="-19.3"/>
			<line class="st1" x1="65.5" y1="-26.3" x2="65.5" y2="-11.7"/>
			<line class="st1" x1="63.2" y1="-28.7" x2="63.2" y2="-14"/>
			<line class="st1" x1="73" y1="-29.8" x2="58.3" y2="-29.8"/>
			<line class="st1" x1="65" y1="-32.5" x2="50.3" y2="-32.5"/>
			<line class="st1" x1="54.7" y1="-35.5" x2="40" y2="-35.5"/>
			<line class="st1" x1="64.8" y1="-51.2" x2="64.8" y2="-36.5"/>
			<line class="st1" x1="51.8" y1="-19.3" x2="51.8" y2="-4.7"/>
			<line class="st1" x1="77.8" y1="-36.2" x2="77.8" y2="-21.5"/>
			<line class="st1" x1="71" y1="-47.5" x2="71" y2="-32.8"/>
			<line class="st1" x1="74.2" y1="-52.8" x2="74.2" y2="-38.2"/>
			<line class="st1" x1="67.5" y1="-41.5" x2="67.5" y2="-26.8"/>
			<line class="st1" x1="79.5" y1="-44.5" x2="79.5" y2="-29.8"/>
			<line class="st1" x1="82.5" y1="-50" x2="82.5" y2="-35.3"/>
			<line class="st1" x1="80.8" y1="-50.3" x2="80.8" y2="-35.7"/>
			<line class="st1" x1="76" y1="-48" x2="76" y2="-33.3"/>
			<line class="st1" x1="72.7" y1="-34.5" x2="87.3" y2="-34.5"/>
			<line class="st1" x1="76" y1="-31.5" x2="90.7" y2="-31.5"/>
			<line class="st1" x1="78" y1="-35.8" x2="92.7" y2="-35.8"/>
			<line class="st1" x1="78" y1="-41.2" x2="92.7" y2="-41.2"/>
			<line class="st1" x1="80.7" y1="-38.5" x2="95.3" y2="-38.5"/>
			<line class="st1" x1="82.7" y1="-43.5" x2="97.3" y2="-43.5"/>
			<line class="st1" x1="51" y1="-21.2" x2="65.7" y2="-21.2"/>
			<line class="st1" x1="55.3" y1="-23.8" x2="70" y2="-23.8"/>
			<line class="st1" x1="54.7" y1="-28.5" x2="69.3" y2="-28.5"/>
			<line class="st1" x1="39" y1="-38.5" x2="53.7" y2="-38.5"/>
			<line class="st1" x1="64" y1="-37.3" x2="78.7" y2="-37.3"/>
			<line class="st1" x1="64.3" y1="-39.3" x2="79" y2="-39.3"/>
			<line class="st1" x1="69.8" y1="-53.5" x2="69.8" y2="-38.8"/>
			<line class="st1" x1="67.7" y1="-57" x2="67.7" y2="-42.3"/>
			<line class="st1" x1="61.3" y1="-51.3" x2="61.3" y2="-36.7"/>
			<line class="st1" x1="58.7" y1="-45.7" x2="73.3" y2="-45.7"/>
			<line class="st1" x1="61.3" y1="-54.3" x2="76" y2="-54.3"/>
			<line class="st1" x1="64.3" y1="-43.5" x2="79" y2="-43.5"/>
			<line class="st1" x1="81.3" y1="-76" x2="96" y2="-76"/>
			<line class="st1" x1="79.7" y1="-69.3" x2="94.3" y2="-69.3"/>
			<line class="st1" x1="16.7" y1="-80.2" x2="2" y2="-80.2"/>
			<line class="st1" x1="20.2" y1="-74.7" x2="5.5" y2="-74.7"/>
			<line class="st1" x1="2.3" y1="-66.5" x2="17" y2="-66.5"/>
			<line class="st1" x1="6" y1="-17.5" x2="20.7" y2="-17.5"/>
			<line class="st1" x1="2.3" y1="-12.8" x2="17" y2="-12.8"/>
			<line class="st1" x1="7.7" y1="-14.8" x2="22.3" y2="-14.8"/>
			<line class="st1" x1="3" y1="-19.8" x2="17.7" y2="-19.8"/>
			<line class="st1" x1="7.7" y1="-28.5" x2="22.3" y2="-28.5"/>
			<line class="st1" x1="4.3" y1="-24.2" x2="19" y2="-24.2"/>
			<line class="st1" x1="17.8" y1="-59.7" x2="3.2" y2="-59.7"/>
			<line class="st1" x1="18.3" y1="-56.2" x2="3.7" y2="-56.2"/>
			<line class="st1" x1="21.3" y1="-54.2" x2="6.7" y2="-54.2"/>
			<line class="st1" x1="7" y1="-64.3" x2="21.7" y2="-64.3"/>
			<line class="st1" x1="17.5" y1="-50.2" x2="2.8" y2="-50.2"/>
			<line class="st1" x1="21.5" y1="-48.2" x2="6.8" y2="-48.2"/>
			<line class="st1" x1="15.8" y1="-45.8" x2="1.2" y2="-45.8"/>
			<line class="st1" x1="4" y1="-31.5" x2="18.7" y2="-31.5"/>
			<line class="st1" x1="6" y1="-35.8" x2="20.7" y2="-35.8"/>
			<line class="st1" x1="6" y1="-41.2" x2="20.7" y2="-41.2"/>
			<line class="st1" x1="8.7" y1="-38.5" x2="23.3" y2="-38.5"/>
			<line class="st1" x1="10.7" y1="-43.5" x2="25.3" y2="-43.5"/>
			<line class="st1" x1="25.8" y1="-18.2" x2="25.8" y2="-3.5"/>
			<line class="st1" x1="23.2" y1="-20.5" x2="23.2" y2="-5.8"/>
			<line class="st1" x1="76.2" y1="-14.7" x2="76.2" y2="0"/>
			<line class="st1" x1="73.7" y1="-15.3" x2="73.7" y2="-0.7"/>
			<line class="st1" x1="50.3" y1="-14.7" x2="50.3" y2="0"/>
			<line class="st1" x1="81.5" y1="-14.7" x2="81.5" y2="0"/>
			<line class="st1" x1="56" y1="-16.5" x2="56" y2="-1.8"/>
			<line class="st1" x1="29.7" y1="-15.3" x2="29.7" y2="-0.7"/>
			<line class="st1" x1="14.7" y1="-15.5" x2="14.7" y2="-0.8"/>
			<line class="st1" x1="19.7" y1="-17.5" x2="19.7" y2="-2.8"/>
			<line class="st1" x1="47.7" y1="-14.7" x2="47.7" y2="0"/>
			<line class="st1" x1="71.3" y1="-23" x2="71.3" y2="-8.3"/>
			<line class="st1" x1="46" y1="-23" x2="46" y2="-8.3"/>
		</g>
		<g>
			<line class="st1" x1="16.7" y1="-80.2" x2="2" y2="-80.2"/>
			<line class="st1" x1="15.2" y1="-77.7" x2="0.5" y2="-77.7"/>
			<line class="st1" x1="20.2" y1="-74.7" x2="5.5" y2="-74.7"/>
			<line class="st1" x1="2.3" y1="-66.5" x2="17" y2="-66.5"/>
			<line class="st1" x1="6" y1="-17.5" x2="20.7" y2="-17.5"/>
			<line class="st1" x1="2.3" y1="-12.8" x2="17" y2="-12.8"/>
			<line class="st1" x1="7.7" y1="-14.8" x2="22.3" y2="-14.8"/>
			<line class="st1" x1="3" y1="-19.8" x2="17.7" y2="-19.8"/>
			<line class="st1" x1="0" y1="-26.5" x2="14.7" y2="-26.5"/>
			<line class="st1" x1="7.7" y1="-28.5" x2="22.3" y2="-28.5"/>
			<line class="st1" x1="4.3" y1="-24.2" x2="19" y2="-24.2"/>
			<line class="st1" x1="17.8" y1="-59.7" x2="3.2" y2="-59.7"/>
			<line class="st1" x1="18.3" y1="-56.2" x2="3.7" y2="-56.2"/>
			<line class="st1" x1="21.3" y1="-54.2" x2="6.7" y2="-54.2"/>
			<line class="st1" x1="7" y1="-64.3" x2="21.7" y2="-64.3"/>
			<line class="st1" x1="17.5" y1="-50.2" x2="2.8" y2="-50.2"/>
			<line class="st1" x1="21.5" y1="-48.2" x2="6.8" y2="-48.2"/>
			<line class="st1" x1="15.8" y1="-45.8" x2="1.2" y2="-45.8"/>
			<line class="st1" x1="0.7" y1="-34.5" x2="15.3" y2="-34.5"/>
			<line class="st1" x1="4" y1="-31.5" x2="18.7" y2="-31.5"/>
			<line class="st1" x1="6" y1="-35.8" x2="20.7" y2="-35.8"/>
			<line class="st1" x1="6" y1="-41.2" x2="20.7" y2="-41.2"/>
			<line class="st1" x1="8.7" y1="-38.5" x2="23.3" y2="-38.5"/>
			<line class="st1" x1="10.7" y1="-43.5" x2="25.3" y2="-43.5"/>
			<line class="st1" x1="9.3" y1="-76" x2="24" y2="-76"/>
			<line class="st1" x1="7.7" y1="-69.3" x2="22.3" y2="-69.3"/>
		</g>
		<g>
			<line class="st1" x1="71.3" y1="-95" x2="71.3" y2="-80.3"/>
			<line class="st1" x1="72.8" y1="-96.5" x2="72.8" y2="-81.8"/>
			<line class="st1" x1="78.2" y1="-91" x2="78.2" y2="-76.3"/>
			<line class="st1" x1="82.5" y1="-93.7" x2="82.5" y2="-79"/>
			<line class="st1" x1="32.2" y1="-96.2" x2="32.2" y2="-81.5"/>
			<line class="st1" x1="38.7" y1="-95.3" x2="38.7" y2="-80.7"/>
			<line class="st1" x1="46" y1="-95" x2="46" y2="-80.3"/>
			<line class="st1" x1="43.8" y1="-96.2" x2="43.8" y2="-81.5"/>
			<line class="st1" x1="50" y1="-97.3" x2="50" y2="-82.7"/>
			<line class="st1" x1="67.8" y1="-97.3" x2="67.8" y2="-82.7"/>
			<line class="st1" x1="60.8" y1="-89.3" x2="60.8" y2="-74.7"/>
			<line class="st1" x1="51.8" y1="-91.3" x2="51.8" y2="-76.7"/>
			<line class="st1" x1="25.8" y1="-90.2" x2="25.8" y2="-75.5"/>
			<line class="st1" x1="23.2" y1="-92.5" x2="23.2" y2="-77.8"/>
			<line class="st1" x1="76.2" y1="-86.7" x2="76.2" y2="-72"/>
			<line class="st1" x1="73.7" y1="-87.3" x2="73.7" y2="-72.7"/>
			<line class="st1" x1="50.3" y1="-86.7" x2="50.3" y2="-72"/>
			<line class="st1" x1="81.5" y1="-86.7" x2="81.5" y2="-72"/>
			<line class="st1" x1="56" y1="-88.5" x2="56" y2="-73.8"/>
			<line class="st1" x1="29.7" y1="-87.3" x2="29.7" y2="-72.7"/>
			<line class="st1" x1="14.7" y1="-87.5" x2="14.7" y2="-72.8"/>
			<line class="st1" x1="19.7" y1="-89.5" x2="19.7" y2="-74.8"/>
			<line class="st1" x1="47.7" y1="-86.7" x2="47.7" y2="-72"/>
			<line class="st1" x1="71.3" y1="-95" x2="71.3" y2="-80.3"/>
			<line class="st1" x1="46" y1="-95" x2="46" y2="-80.3"/>
		</g>
	</g>
</pattern>
<pattern  x="-565" y="1718" width="72" height="72" patternUnits="userSpaceOnUse" id="Hatching_Dense" viewBox="25.5 -92.8 72 72" style="overflow:visible;">
	<g>
		<polygon class="st0" points="25.5,-92.8 97.5,-92.8 97.5,-20.8 25.5,-20.8 		"/>
		<g>
			<polyline class="st2" points="56.3,-21.5 58,-19.8 75.7,-2 			"/>
			<polyline class="st3" points="60.7,-21.6 62.6,-19.7 70.1,-12 			"/>
			<polyline class="st2" points="71.1,-21.5 71.3,-19.5 72,-8.5 			"/>
			<polyline class="st2" points="91.2,-21.5 91.7,-19.9 96.4,-3.8 			"/>
			<polyline class="st2" points="74.4,-21.5 74.5,-19.5 75.9,-4.8 			"/>
			<polyline class="st2" points="79,-21.5 79.2,-19.7 81.1,-5 			"/>
			<polyline class="st2" points="82.7,-21.5 82.9,-19.7 84.9,-6 			"/>
			<polyline class="st2" points="87.7,-21.5 88.1,-19.8 91.7,-4.7 			"/>
			<polyline class="st3" points="66.3,-21.6 68,-19.9 69.6,-18.4 			"/>
			<polyline class="st3" points="51.1,-21.6 52.6,-19.7 68.3,-0.1 			"/>
			<polyline class="st3" points="29.7,-22 32.2,-19.5 35.1,-16.7 			"/>
			<polyline class="st3" points="26.3,-21.3 27.5,-19.9 32.4,-14 			"/>
			<polyline class="st2" points="94.9,-21.5 97,-18.6 98.2,-16.9 			"/>
			<polyline class="st2" points="94.3,-21.9 95.2,-19.7 97,-15.4 98,-12.8 			"/>
		</g>
		<g>
			<polyline class="st2" points="22.9,-21.5 25,-18.6 26.2,-16.9 			"/>
			<polyline class="st2" points="22.3,-21.9 23.2,-19.7 25,-15.4 26,-12.8 			"/>
		</g>
		<g>
			<polyline class="st2" points="97,-90.6 98.2,-88.9 102,-83.6 			"/>
			<polyline class="st2" points="97,-87.4 98,-84.8 100.4,-79.1 			"/>
			<polyline class="st3" points="96.8,-70.7 98.1,-72.1 106.2,-81.4 			"/>
			<polyline class="st3" points="96.7,-61.9 98.2,-63.3 115.7,-80.9 			"/>
			<polyline class="st3" points="96.9,-75.5 98.2,-76.9 102.7,-81.5 			"/>
			<polyline class="st3" points="96.9,-67.2 98.2,-68.4 111,-81.2 			"/>
			<polyline class="st2" points="96.7,-38 98.2,-39 102.6,-41.8 			"/>
			<polyline class="st3" points="96.7,-34.7 98.3,-35.8 105.9,-40.5 			"/>
			<polyline class="st3" points="96.5,-28.8 98.2,-30 109.4,-37.5 			"/>
			<polyline class="st3" points="99.7,-27.5 98.2,-26.7 96.5,-25.7 			"/>
			<polyline class="st3" points="96.6,-41.3 98,-41.1 99.9,-40.8 			"/>
			<polyline class="st3" points="99.2,-44.5 98.2,-44.9 96.5,-45.4 			"/>
			<polyline class="st2" points="100.2,-42.7 98.1,-43.1 96.5,-43.5 			"/>
			<polyline class="st3" points="96.8,-53.5 98.2,-52.4 102.4,-49.3 			"/>
			<polyline class="st3" points="96.7,-50.2 98.3,-49.3 101.6,-47.3 			"/>
			<polyline class="st2" points="96.8,-58.2 98.4,-56.8 104.4,-51.5 			"/>
			<polyline class="st2" points="96.5,-47 98.2,-46 99.6,-45.2 			"/>
			<polyline class="st3" points="97.5,-26.3 101.7,-22 104.2,-19.5 			"/>
			<polyline class="st3" points="95.1,-25.2 98.3,-21.3 99.5,-19.9 			"/>
		</g>
		<g>
			<line class="st3" x1="60.9" y1="-74.5" x2="65.6" y2="-72.3"/>
			<line class="st3" x1="60.6" y1="-77.5" x2="63.9" y2="-75.3"/>
			<line class="st3" x1="34.1" y1="-50.8" x2="57.5" y2="-51.3"/>
			<line class="st3" x1="33.1" y1="-47.3" x2="59" y2="-47.5"/>
			<line class="st2" x1="28.7" y1="-58.7" x2="47.6" y2="-80.8"/>
			<line class="st2" x1="47.6" y1="-77.3" x2="47.5" y2="-55.3"/>
			<line class="st3" x1="32.6" y1="-84.5" x2="57.1" y2="-83.5"/>
			<line class="st3" x1="69.6" y1="-50.5" x2="61.1" y2="-55"/>
			<line class="st3" x1="34.2" y1="-54.5" x2="26.8" y2="-60.3"/>
			<line class="st3" x1="54.5" y1="-80.3" x2="54.4" y2="-55.7"/>
			<line class="st3" x1="57.5" y1="-80.3" x2="57.4" y2="-55.8"/>
			<line class="st3" x1="50.3" y1="-80.6" x2="50.7" y2="-55.5"/>
			<line class="st3" x1="44.6" y1="-74.3" x2="44.5" y2="-55.1"/>
			<line class="st3" x1="40.6" y1="-68.8" x2="39.5" y2="-54.8"/>
			<line class="st3" x1="36.9" y1="-65.8" x2="35.9" y2="-54.6"/>
			<line class="st3" x1="33.6" y1="-61.5" x2="32.9" y2="-57.5"/>
			<line class="st3" x1="33.9" y1="-87.3" x2="54.4" y2="-86.5"/>
			<line class="st3" x1="36.8" y1="-90.3" x2="51.1" y2="-89.8"/>
			<line class="st2" x1="30.4" y1="-44.3" x2="58.2" y2="-44.3"/>
			<line class="st2" x1="77.6" y1="-55.8" x2="68.2" y2="-47.8"/>
			<line class="st2" x1="76.1" y1="-37" x2="59.5" y2="-48.8"/>
			<line class="st2" x1="70.6" y1="-46.5" x2="77.3" y2="-52.7"/>
			<line class="st3" x1="70.1" y1="-44.5" x2="60.3" y2="-52.7"/>
			<line class="st2" x1="51.9" y1="-40.8" x2="68.6" y2="-23.3"/>
			<line class="st2" x1="56.1" y1="-41" x2="69.6" y2="-27.8"/>
			<line class="st2" x1="59.4" y1="-42" x2="67.6" y2="-33.5"/>
			<line class="st2" x1="58.7" y1="-46.2" x2="69.4" y2="-36.5"/>
			<line class="st3" x1="73.1" y1="-73.3" x2="78.9" y2="-59"/>
			<line class="st3" x1="85" y1="-76.4" x2="93.1" y2="-74"/>
			<line class="st3" x1="83" y1="-75.9" x2="90.9" y2="-71"/>
			<line class="st3" x1="80.5" y1="-75.2" x2="88.9" y2="-69"/>
			<line class="st3" x1="77.7" y1="-74.4" x2="88.1" y2="-65.7"/>
			<line class="st3" x1="77.6" y1="-72.5" x2="86.1" y2="-61.8"/>
			<line class="st3" x1="75.4" y1="-72.3" x2="85.4" y2="-56"/>
			<line class="st3" x1="28.1" y1="-26.5" x2="40.6" y2="-35.3"/>
			<line class="st3" x1="42.1" y1="-33" x2="29.9" y2="-24.3"/>
			<line class="st3" x1="43.9" y1="-31" x2="31.9" y2="-22"/>
			<line class="st3" x1="78.9" y1="-59" x2="81.1" y2="-53"/>
			<line class="st3" x1="80.2" y1="-52.9" x2="71.2" y2="-43.9"/>
			<line class="st3" x1="37.9" y1="-23.3" x2="47.6" y2="-22.8"/>
			<line class="st3" x1="80.4" y1="-45" x2="74.6" y2="-39.5"/>
			<line class="st3" x1="83.9" y1="-41.4" x2="81.1" y2="-36.3"/>
			<line class="st3" x1="86.1" y1="-38" x2="92.6" y2="-37.5"/>
			<line class="st3" x1="82.1" y1="-44" x2="77.9" y2="-36.5"/>
			<line class="st3" x1="61.1" y1="-71.5" x2="73.6" y2="-68.8"/>
			<line class="st3" x1="61.9" y1="-67.8" x2="74.9" y2="-64.8"/>
			<line class="st3" x1="60.8" y1="-64.2" x2="76.9" y2="-60.5"/>
			<line class="st3" x1="61.2" y1="-60.6" x2="76.1" y2="-57"/>
			<line class="st3" x1="61.1" y1="-57.9" x2="73.9" y2="-54.5"/>
			<line class="st3" x1="64.6" y1="-55" x2="71.7" y2="-52.5"/>
			<line class="st3" x1="39.4" y1="-25" x2="46.4" y2="-24.8"/>
			<line class="st3" x1="41.1" y1="-26.8" x2="44.7" y2="-26.6"/>
			<polyline class="st2" points="56.3,-93.5 58,-91.8 75.7,-74 			"/>
			<polyline class="st3" points="60.7,-93.6 62.6,-91.7 70.1,-84 			"/>
			<polyline class="st2" points="71.1,-93.5 71.3,-91.5 72,-80.5 			"/>
			<polyline class="st2" points="91.2,-93.5 91.7,-91.9 96.4,-75.8 			"/>
			<polyline class="st2" points="74.4,-93.5 74.5,-91.5 75.9,-76.8 			"/>
			<polyline class="st2" points="79,-93.5 79.2,-91.7 81.1,-77 			"/>
			<polyline class="st2" points="82.7,-93.5 82.9,-91.7 84.9,-78 			"/>
			<polyline class="st2" points="87.7,-93.5 88.1,-91.8 91.7,-76.7 			"/>
			<polyline class="st3" points="66.3,-93.6 68,-91.9 69.6,-90.4 			"/>
			<polyline class="st3" points="51.1,-93.6 52.6,-91.7 68.3,-72.1 			"/>
			<polyline class="st3" points="29.7,-94 32.2,-91.5 35.1,-88.7 			"/>
			<polyline class="st3" points="26.3,-93.3 27.5,-91.9 32.4,-86 			"/>
			<polyline class="st2" points="25,-90.6 26.2,-88.9 30,-83.6 			"/>
			<polyline class="st2" points="25,-87.4 26,-84.8 28.4,-79.1 			"/>
			<polyline class="st3" points="24.8,-70.7 26.1,-72.1 34.2,-81.4 			"/>
			<polyline class="st3" points="24.7,-61.9 26.2,-63.3 43.7,-80.9 			"/>
			<polyline class="st3" points="24.9,-75.5 26.2,-76.9 30.7,-81.5 			"/>
			<polyline class="st3" points="24.9,-67.2 26.2,-68.4 39,-81.2 			"/>
			<polyline class="st2" points="24.7,-38 26.2,-39 30.6,-41.8 			"/>
			<polyline class="st3" points="24.7,-34.7 26.3,-35.8 33.9,-40.5 			"/>
			<polyline class="st3" points="24.5,-28.8 26.2,-30 37.4,-37.5 			"/>
			<polyline class="st3" points="27.7,-27.5 26.2,-26.7 24.5,-25.7 			"/>
			<polyline class="st3" points="24.6,-41.3 26,-41.1 27.9,-40.8 			"/>
			<polyline class="st3" points="27.2,-44.5 26.2,-44.9 24.5,-45.4 			"/>
			<polyline class="st2" points="28.2,-42.7 26.1,-43.1 24.5,-43.5 			"/>
			<polyline class="st3" points="24.8,-53.5 26.2,-52.4 30.4,-49.3 			"/>
			<polyline class="st3" points="24.7,-50.2 26.3,-49.3 29.6,-47.3 			"/>
			<polyline class="st2" points="24.8,-58.2 26.4,-56.8 32.4,-51.5 			"/>
			<polyline class="st2" points="24.5,-47 26.2,-46 27.6,-45.2 			"/>
			<polyline class="st2" points="36.9,-41.1 56.3,-21.5 58,-19.8 			"/>
			<polyline class="st3" points="40.9,-41.8 60.7,-21.6 62.6,-19.7 			"/>
			<polyline class="st2" points="70.4,-32 71.1,-21.5 71.3,-19.5 			"/>
			<polyline class="st2" points="90.1,-25.3 91.2,-21.5 91.7,-19.9 			"/>
			<polyline class="st2" points="73.1,-35.8 74.4,-21.5 74.5,-19.5 			"/>
			<polyline class="st2" points="77.4,-34.5 79,-21.5 79.2,-19.7 			"/>
			<polyline class="st2" points="80.9,-33.8 82.7,-21.5 82.9,-19.7 			"/>
			<polyline class="st2" points="84.7,-34.2 87.7,-21.5 88.1,-19.8 			"/>
			<polyline class="st3" points="45.9,-41 66.3,-21.6 68,-19.9 			"/>
			<polyline class="st3" points="46.1,-27.8 51.1,-21.6 52.6,-19.7 			"/>
			<polyline class="st3" points="25.5,-26.3 29.7,-22 32.2,-19.5 			"/>
			<polyline class="st3" points="23.1,-25.2 26.3,-21.3 27.5,-19.9 			"/>
			<polyline class="st2" points="94.9,-93.5 97,-90.6 98.2,-88.9 			"/>
			<polyline class="st2" points="94.3,-93.9 95.2,-91.7 97,-87.4 98,-84.8 			"/>
			<polyline class="st3" points="86.1,-58.5 96.8,-70.7 98.1,-72.1 			"/>
			<polyline class="st3" points="87.4,-52.5 96.7,-61.9 98.2,-63.3 			"/>
			<polyline class="st3" points="88.7,-67 96.9,-75.5 98.2,-76.9 			"/>
			<polyline class="st3" points="72.1,-42.5 96.9,-67.2 98.2,-68.4 			"/>
			<polyline class="st2" points="88.6,-32.9 96.7,-38 98.2,-39 			"/>
			<polyline class="st3" points="87.6,-29 96.7,-34.7 98.3,-35.8 			"/>
			<polyline class="st3" points="92.4,-26 96.5,-28.8 98.2,-30 			"/>
			<polyline class="st3" points="98.2,-26.7 96.5,-25.7 94.4,-24.5 			"/>
			<polyline class="st3" points="83.4,-43.5 96.6,-41.3 98,-41.1 			"/>
			<polyline class="st3" points="98.2,-44.9 96.5,-45.4 83.4,-49.8 			"/>
			<polyline class="st2" points="98.1,-43.1 96.5,-43.5 81.6,-46.8 			"/>
			<polyline class="st3" points="93.9,-55.8 96.8,-53.5 98.2,-52.4 			"/>
			<polyline class="st3" points="90.9,-53.8 96.7,-50.2 98.3,-49.3 			"/>
			<polyline class="st2" points="94.7,-60 96.8,-58.2 98.4,-56.8 			"/>
			<polyline class="st2" points="88.9,-51.5 96.5,-47 98.2,-46 			"/>
			<line class="st3" x1="95.1" y1="-25.2" x2="98.3" y2="-21.3"/>
			<polyline class="st2" points="93.9,-23 94.3,-21.9 95.2,-19.7 			"/>
		</g>
		<g>
			<polyline class="st2" points="22.9,-93.5 25,-90.6 26.2,-88.9 			"/>
			<polyline class="st2" points="22.3,-93.9 23.2,-91.7 25,-87.4 26,-84.8 			"/>
			<polyline class="st3" points="14.1,-58.5 24.8,-70.7 26.1,-72.1 			"/>
			<polyline class="st3" points="15.4,-52.5 24.7,-61.9 26.2,-63.3 			"/>
			<polyline class="st3" points="16.7,-67 24.9,-75.5 26.2,-76.9 			"/>
			<polyline class="st3" points="0.1,-42.5 24.9,-67.2 26.2,-68.4 			"/>
			<polyline class="st2" points="16.6,-32.9 24.7,-38 26.2,-39 			"/>
			<polyline class="st3" points="15.6,-29 24.7,-34.7 26.3,-35.8 			"/>
			<polyline class="st3" points="20.4,-26 24.5,-28.8 26.2,-30 			"/>
			<polyline class="st3" points="26.2,-26.7 24.5,-25.7 22.4,-24.5 			"/>
			<polyline class="st3" points="11.4,-43.5 24.6,-41.3 26,-41.1 			"/>
			<polyline class="st3" points="26.2,-44.9 24.5,-45.4 11.4,-49.8 			"/>
			<polyline class="st2" points="26.1,-43.1 24.5,-43.5 9.6,-46.8 			"/>
			<polyline class="st3" points="21.9,-55.8 24.8,-53.5 26.2,-52.4 			"/>
			<polyline class="st3" points="18.9,-53.8 24.7,-50.2 26.3,-49.3 			"/>
			<polyline class="st2" points="22.7,-60 24.8,-58.2 26.4,-56.8 			"/>
			<polyline class="st2" points="16.9,-51.5 24.5,-47 26.2,-46 			"/>
			<line class="st3" x1="23.1" y1="-25.2" x2="26.3" y2="-21.3"/>
		</g>
		<g>
			<polyline class="st3" points="97.5,-98.3 101.7,-94 104.2,-91.5 			"/>
			<polyline class="st3" points="95.1,-97.2 98.3,-93.3 99.5,-91.9 			"/>
		</g>
		<g>
			<polyline class="st2" points="36.9,-113.1 56.3,-93.5 58,-91.8 			"/>
			<polyline class="st3" points="40.9,-113.8 60.7,-93.6 62.6,-91.7 			"/>
			<polyline class="st2" points="70.4,-104 71.1,-93.5 71.3,-91.5 			"/>
			<polyline class="st2" points="90.1,-97.3 91.2,-93.5 91.7,-91.9 			"/>
			<polyline class="st2" points="73.1,-107.8 74.4,-93.5 74.5,-91.5 			"/>
			<polyline class="st2" points="77.4,-106.5 79,-93.5 79.2,-91.7 			"/>
			<polyline class="st2" points="80.9,-105.8 82.7,-93.5 82.9,-91.7 			"/>
			<polyline class="st2" points="84.7,-106.2 87.7,-93.5 88.1,-91.8 			"/>
			<polyline class="st3" points="45.9,-113 66.3,-93.6 68,-91.9 			"/>
			<polyline class="st3" points="46.1,-99.8 51.1,-93.6 52.6,-91.7 			"/>
			<polyline class="st3" points="25.5,-98.3 29.7,-94 32.2,-91.5 			"/>
			<polyline class="st3" points="23.1,-97.2 26.3,-93.3 27.5,-91.9 			"/>
			<polyline class="st2" points="93.9,-95 94.3,-93.9 95.2,-91.7 			"/>
		</g>
	</g>
</pattern>
<sodipodi:namedview  borderopacity="1.0" inkscape:zoom="1.4133192" bordercolor="#666666" showgrid="true" inkscape:cx="298.31503" inkscape:cy="850.86971" showguides="true" id="base" pagecolor="#ffffff" inkscape:window-maximized="1" inkscape:window-y="22" inkscape:window-x="4" inkscape:window-height="756" inkscape:window-width="1276" inkscape:snap-bbox-midpoints="true" inkscape:snap-bbox="true" inkscape:snap-smooth-nodes="true" inkscape:current-layer="layer1" inkscape:pageshadow="2" inkscape:pageopacity="0.0" inkscape:document-units="mm" inkscape:object-paths="false" inkscape:guide-bbox="true" inkscape:snap-intersection-paths="true">
	<inkscape:grid  type="xygrid" units="mm" spacingy="1" spacingx="1" empspacing="4" id="grid4508"></inkscape:grid>
	<sodipodi:guide  inkscape:locked="false" position="52,292" orientation="0,1" id="guide4543"></sodipodi:guide>
	<sodipodi:guide  inkscape:locked="false" position="28,244" orientation="0,1" id="guide4545"></sodipodi:guide>
	<sodipodi:guide  inkscape:locked="false" position="230,209" orientation="0,1" id="guide4547"></sodipodi:guide>
	<sodipodi:guide  inkscape:locked="false" position="222.06164,285.75001" orientation="1,0" id="guide4549"></sodipodi:guide>
	<sodipodi:guide  inkscape:locked="false" position="218.06164,264.75538" orientation="1,0" id="guide4553"></sodipodi:guide>
	<sodipodi:guide  inkscape:locked="false" position="178,217" orientation="1,0" id="guide4594"></sodipodi:guide>
	<sodipodi:guide  inkscape:locked="false" position="126,225" orientation="0,1" id="guide4626"></sodipodi:guide>
	<sodipodi:guide  inkscape:locked="false" position="202.06164,164.96909" orientation="1,0" id="guide4630"></sodipodi:guide>
	<sodipodi:guide  inkscape:locked="false" position="8,240" orientation="1,0" id="guide4724"></sodipodi:guide>
	<sodipodi:guide  inkscape:locked="false" position="32.8119,181.80122" orientation="0,1" id="guide4771"></sodipodi:guide>
	<sodipodi:guide  inkscape:locked="false" position="143,197.00001" orientation="0,1" id="guide4775"></sodipodi:guide>
	<sodipodi:guide  inkscape:locked="false" position="265,199" orientation="1,0" id="guide4796"></sodipodi:guide>
	<sodipodi:guide  inkscape:locked="false" position="295.99999,201.00002" orientation="1,0" id="guide4808"></sodipodi:guide>
	<sodipodi:guide  inkscape:locked="false" position="47.999999,240.00001" orientation="1,0" id="guide4554"></sodipodi:guide>
</sodipodi:namedview>
<g id="layer1" inkscape:label="Layer 1" inkscape:groupmode="layer">
	<g id="g887" transform="rotate(-90,113.5,117.5)">
		<path class="st4" d="M-954.1-311.5h-167.2v11.3h-150.2v-106.7c9.9,0,18-8.1,18-18s-8.1-18-18-18v-106.7h150.2v11.3h167.2v-11.3
			h22.7v249.4h-22.7V-311.5z"/>
		<path id="rect4510" inkscape:connector-curvature="0" sodipodi:nodetypes="ccccccccccccccc" class="st4" d="M-954.1-481.6h-11.3
			v113.4h11.3V-481.6z M-942.8-368.2h-11.3v45.3h11.3V-368.2z M-965.4-368.2h-11.3v45.3h11.3V-368.2z"/>
		
			<rect id="rect4516" x="-971.1" y="-510" transform="matrix(-2.535182e-006 -1 1 -2.535182e-006 -444.1126 -1452.7257)" class="st4" width="45.4" height="11.3"/>
		
			<rect id="rect4520" x="-993.8" y="-510" transform="matrix(-2.535182e-006 -1 1 -2.535182e-006 -466.7899 -1475.4028)" class="st4" width="45.4" height="11.3"/>
	</g>
	<g id="g4749" transform="rotate(90,164.65615,-64.656146)">
		<path id="rect4506" inkscape:connector-curvature="0" sodipodi:nodetypes="ccccccccccccccccccccc" class="st5" d="M1179.1,404.2
			v11.3h-59.5v113.4v113.4h59.5v11.3h42.5v-11.3l11.3,0V631v-45.4h11.3v-56.7v-56.7H1233v-45.4v-11.3l-11.3,0v-11.3H1179.1z"/>
		
			<rect id="rect4578" x="1170.6" y="511.9" transform="matrix(2.535182e-006 1 -1 2.535182e-006 1716.5615 -658.6918)" class="st4" width="34" height="34"/>
	</g>
	<g id="g4759" transform="rotate(-90,202.24272,206.24278)">
		<path id="path4564" inkscape:connector-curvature="0" sodipodi:nodetypes="cccccccccccccccccccccc" class="st5" d="M-731.2-549.7
			v11.3h-11.3v113.4v113.4h11.3v11.3h42.5v-11.3l59.5,0v-11.3h11.3v-45.4h-11.3v-113.4h11.3V-527h-11.3v-11.3l-59.5,0v-11.3H-731.2z
			"/>
		<g id="g4660" transform="translate(133.42376,-162.88447)">
			
				<rect id="rect4596" x="-810.1" y="-291.1" transform="matrix(-2.535182e-006 -1 1 -2.535182e-006 -526.7942 -1089.1659)" class="st4" width="4.3" height="19.8"/>
			
				<rect id="rect4598" x="-810.1" y="-252.8" transform="matrix(-2.535182e-006 -1 1 -2.535182e-006 -565.0619 -1050.8982)" class="st4" width="4.3" height="19.8"/>
		</g>
	</g>
	<g id="g881" transform="rotate(-180,159.06164,83)">
		<path class="st4" d="M543.9-1033.3c0-5.7,4.6-10.3,10.3-10.3c5.7,0,10.3,4.6,10.3,10.3c0,5.7-4.6,10.3-10.3,10.3
			C548.5-1023,543.9-1027.6,543.9-1033.3z"/>
		<rect x="545.5" y="-919.9" class="st4" width="42.5" height="11.3"/>
		<rect x="545.5" y="-1158" class="st4" width="42.5" height="11.3"/>
		<rect x="497.3" y="-908.5" class="st4" width="42.5" height="11.3"/>
		<rect x="497.3" y="-1169.3" class="st4" width="42.5" height="11.3"/>
		<path class="st4" d="M421.8-1016.2c-4.4-4.4-7.1-10.4-7.1-17c0-13.3,10.8-24.1,24.1-24.1c13.3,0,24.1,10.8,24.1,24.1
			c0,13.3-10.8,24.1-24.1,24.1C432.1-1009.2,426.1-1011.9,421.8-1016.2z"/>
		<path class="st4" d="M386.7-1146.7L386.7-1146.7c0.4-0.1,0.8-0.1,1.2-0.1c1.5,0,3,0,4.5,0.1H386.7z"/>
		<path class="st4" d="M414.7-1033.3c0-13.3,10.8-24.1,24.1-24.1c13.3,0,24.1,10.8,24.1,24.1c0,13.3-10.8,24.1-24.1,24.1
			c-6.6,0-12.7-2.7-17-7C417.4-1020.6,414.7-1026.6,414.7-1033.3z"/>
		<path class="st4" d="M543.9-1033.3c0-5.7,4.6-10.3,10.3-10.3c5.7,0,10.3,4.6,10.3,10.3c0,5.7-4.6,10.3-10.3,10.3
			C548.5-1023,543.9-1027.6,543.9-1033.3z"/>
		<line class="st6" x1="588" y1="-919.9" x2="599.5" y2="-919.9"/>
		<line class="st6" x1="386.9" y1="-919.9" x2="545.5" y2="-919.9"/>
		<rect x="545.5" y="-919.9" class="st4" width="42.5" height="11.3"/>
		<rect x="497.3" y="-908.5" class="st4" width="42.5" height="11.3"/>
		<line class="st6" x1="588" y1="-1146.7" x2="599.3" y2="-1146.7"/>
		<line class="st6" x1="392.4" y1="-1146.7" x2="545.5" y2="-1146.7"/>
		<rect x="545.5" y="-1158" class="st4" width="42.5" height="11.3"/>
		<rect x="497.3" y="-1169.3" class="st4" width="42.5" height="11.3"/>
	</g>
</g>
<g>
	<path d="M-66.7,1143.9c0.5-1,1.2-1.7,2.1-2.3c0.9-0.5,2-0.8,3.2-0.8h5.2c1.2,0,2.2,0.3,3.1,0.8s1.6,1.3,2.1,2.3
		c0.5,1,0.7,2.1,0.7,3.4c0,1.3-0.2,2.4-0.7,3.4c-0.5,1-1.1,1.7-2,2.3c-0.9,0.5-1.8,0.8-3,0.8c-0.1,0-0.2-0.1-0.3-0.4l-0.2-3.1v-0.1
		c0-0.2,0-0.3,0.1-0.3h0.1c0.8,0,1.4-0.2,1.8-0.7c0.4-0.4,0.7-1,0.7-1.8c0-0.7-0.2-1.3-0.7-1.8c-0.5-0.4-1.1-0.7-1.8-0.7h-5.4
		c-0.7,0-1.3,0.2-1.8,0.7c-0.4,0.4-0.7,1-0.7,1.8c0,0.7,0.2,1.3,0.7,1.8c0.4,0.4,1,0.7,1.8,0.7c0.1,0,0.2,0,0.2,0.1
		c0,0.1,0.1,0.2,0,0.3l-0.2,3.1c0,0.3-0.1,0.4-0.1,0.4h-0.1c-1.1,0-2.1-0.3-3-0.8c-0.9-0.5-1.5-1.3-2-2.3c-0.5-1-0.7-2.1-0.7-3.4
		C-67.5,1146-67.2,1144.9-66.7,1143.9z"/>
	<path d="M-66.3,1157.6c0.8-1,1.8-1.7,3.1-2c0.7-0.2,1.4-0.3,2.2-0.3c0.8,0,1.6,0.1,2.3,0.3c1.3,0.4,2.3,1.1,3,2.1
		c0.7,1,1.1,2.2,1.1,3.6c0,1.4-0.4,2.6-1.1,3.6s-1.7,1.7-2.9,2c-0.7,0.2-1.5,0.3-2.3,0.3c-0.7,0-1.4-0.1-2.1-0.3
		c-1.3-0.3-2.4-1-3.2-2c-0.8-1-1.2-2.2-1.2-3.7C-67.5,1159.8-67.1,1158.6-66.3,1157.6z M-63.6,1162.4c0.3,0.3,0.7,0.5,1.2,0.7
		c0.4,0.1,0.9,0.1,1.4,0.1c0.5,0,0.9-0.1,1.4-0.2c0.5-0.1,0.9-0.3,1.2-0.6c0.3-0.3,0.4-0.7,0.4-1.2c0-0.5-0.1-0.9-0.4-1.2
		c-0.3-0.3-0.7-0.5-1.2-0.6c-0.4-0.1-0.8-0.2-1.4-0.2c-0.5,0-1,0-1.4,0.1c-0.5,0.1-0.9,0.4-1.2,0.7c-0.3,0.3-0.4,0.7-0.4,1.2
		S-63.9,1162.1-63.6,1162.4z"/>
	<path d="M-67.1,1169.1c0.1-0.1,0.2-0.1,0.3-0.1h15.9c0.1,0,0.2,0,0.3,0.1s0.1,0.2,0.1,0.3v3.1c0,0.1,0,0.2-0.1,0.3
		c-0.1,0.1-0.2,0.1-0.3,0.1h-15.9c-0.1,0-0.2,0-0.3-0.1c-0.1-0.1-0.1-0.2-0.1-0.3v-3.1C-67.3,1169.3-67.2,1169.2-67.1,1169.1z"/>
	<path d="M-66.3,1177.1c0.8-1,1.8-1.7,3.1-2c0.7-0.2,1.4-0.3,2.2-0.3c0.8,0,1.6,0.1,2.3,0.3c1.3,0.4,2.3,1.1,3,2.1
		c0.7,1,1.1,2.2,1.1,3.6c0,1.4-0.4,2.6-1.1,3.6s-1.7,1.7-2.9,2c-0.7,0.2-1.5,0.3-2.3,0.3c-0.7,0-1.4-0.1-2.1-0.3
		c-1.3-0.3-2.4-1-3.2-2c-0.8-1-1.2-2.2-1.2-3.7C-67.5,1179.3-67.1,1178.1-66.3,1177.1z M-63.6,1181.9c0.3,0.3,0.7,0.5,1.2,0.7
		c0.4,0.1,0.9,0.1,1.4,0.1c0.5,0,0.9-0.1,1.4-0.2c0.5-0.1,0.9-0.3,1.2-0.6c0.3-0.3,0.4-0.7,0.4-1.2c0-0.5-0.1-0.9-0.4-1.2
		c-0.3-0.3-0.7-0.5-1.2-0.6c-0.4-0.1-0.8-0.2-1.4-0.2c-0.5,0-1,0-1.4,0.1c-0.5,0.1-0.9,0.4-1.2,0.7c-0.3,0.3-0.4,0.7-0.4,1.2
		S-63.9,1181.6-63.6,1181.9z"/>
	<path d="M-55,1196.3c-0.1,0.2-0.3,0.3-0.5,0.2l-3.1-0.5c-0.2,0-0.3-0.1-0.3-0.3c0-0.1,0-0.1,0-0.2c0-0.2,0.1-0.4,0.1-0.7
		c0-0.3,0-0.4,0-0.6c-0.1-0.5-0.3-0.9-0.6-1.3c-0.3-0.3-0.7-0.5-1.3-0.5h-6.2c-0.1,0-0.2,0-0.3-0.1c-0.1-0.1-0.1-0.2-0.1-0.3v-3.1
		c0-0.1,0-0.2,0.1-0.3c0.1-0.1,0.2-0.1,0.3-0.1h11.5c0.1,0,0.2,0,0.3,0.1s0.1,0.2,0.1,0.3v3.1c0,0.1,0,0.2-0.1,0.3s-0.2,0.1-0.3,0.1
		h-0.5c-0.1,0-0.1,0-0.1,0.1c0,0,0,0.1,0.1,0.1c0.8,0.6,1.2,1.5,1.2,2.4C-54.7,1195.5-54.8,1196-55,1196.3z"/>
	<path d="M-53.8,1214.6c-0.1-0.1-0.1-0.2-0.1-0.3v-7.3c0-0.1-0.1-0.2-0.2-0.2h-2.9c-0.1,0-0.2,0.1-0.2,0.2v4.6c0,0.1,0,0.2-0.1,0.3
		c-0.1,0.1-0.2,0.1-0.3,0.1H-60c-0.1,0-0.2,0-0.3-0.1c-0.1-0.1-0.1-0.2-0.1-0.3v-4.6c0-0.1-0.1-0.2-0.2-0.2h-3.1
		c-0.1,0-0.2,0.1-0.2,0.2v7.3c0,0.1,0,0.2-0.1,0.3s-0.2,0.1-0.3,0.1h-2.5c-0.1,0-0.2,0-0.3-0.1c-0.1-0.1-0.1-0.2-0.1-0.3v-11.1
		c0-0.1,0-0.2,0.1-0.3c0.1-0.1,0.2-0.1,0.3-0.1h15.9c0.1,0,0.2,0,0.3,0.1s0.1,0.2,0.1,0.3v11.1c0,0.1,0,0.2-0.1,0.3
		s-0.2,0.1-0.3,0.1h-2.5C-53.6,1214.7-53.7,1214.6-53.8,1214.6z"/>
	<path d="M-71.9,1216.4c0.1,0,0.2,0,0.3,0h2.4c0.1,0,0.2,0,0.3,0s0.1,0.1,0.1,0.1v0.1c0,1,0.1,1.8,0.3,2.2c0.2,0.4,0.6,0.7,1.1,0.8
		c0.1,0,0.1,0,0.2,0l11.8-3.8c0,0,0.1,0,0.2,0c0.2,0,0.3,0.1,0.3,0.4v3.4c0,0.1,0,0.2-0.1,0.3c-0.1,0.1-0.2,0.1-0.3,0.2l-6.3,1.6
		c-0.1,0-0.1,0.1-0.1,0.1s0,0.1,0.1,0.1l6.3,1.5c0.1,0,0.2,0.1,0.3,0.2c0.1,0.1,0.1,0.2,0.1,0.3v3.3c0,0.2,0,0.3-0.1,0.3
		c-0.1,0.1-0.2,0.1-0.3,0l-12.2-4c-1.2-0.4-2.1-0.8-2.7-1.3c-0.6-0.4-1.1-1.1-1.4-1.9c-0.3-0.8-0.4-2-0.4-3.6v-0.2
		C-72,1216.5-72,1216.5-71.9,1216.4z"/>
	<path d="M-63.8,1235.6c0.2,0.4,0.4,0.8,0.6,1.1c0.1,0.1,0.2,0.2,0.2,0.3c0,0.1-0.1,0.2-0.2,0.3l-1.8,1.5c-0.1,0.1-0.2,0.1-0.3,0.1
		c-0.1,0-0.2,0-0.3-0.1c-0.6-0.5-1-1.2-1.3-2.1s-0.5-1.7-0.5-2.7c0-1.1,0.2-2.1,0.6-2.9c0.4-0.8,0.9-1.5,1.6-2.1
		c1.1-0.9,2.5-1.3,4.3-1.3c0.8,0,1.5,0.1,2.2,0.3c1.2,0.4,2.3,1,3,2.1c0.8,1,1.1,2.2,1.1,3.6c0,1.6-0.5,2.9-1.5,3.9
		c-1,1-2.4,1.6-4.2,1.9c-0.4,0.1-0.9,0.1-1.5,0.1c-0.3,0-0.4-0.1-0.4-0.4v-7.2c0,0,0-0.1,0-0.1c0,0-0.1-0.1-0.1,0l-0.5,0.1
		c-0.4,0.2-0.7,0.4-0.9,0.8c-0.2,0.4-0.3,0.9-0.3,1.5C-64.1,1234.7-64,1235.2-63.8,1235.6z M-59.3,1232c-0.2-0.1-0.3-0.1-0.4-0.1h0
		c-0.1,0-0.1,0.1-0.1,0.2v3.3c0,0.1,0,0.1,0.1,0.1c0,0,0.1,0,0.1,0l0.3-0.1c0.4-0.1,0.7-0.3,0.9-0.6s0.3-0.7,0.3-1.1
		C-58.1,1232.8-58.5,1232.3-59.3,1232z"/>
	<path d="M-67,1243.6c0.3-0.8,0.8-1.5,1.3-1.9s1.2-0.7,2-0.7h0.1c0.1,0,0.2,0,0.3,0.1c0.1,0.1,0.1,0.2,0.1,0.3v3
		c0,0.3,0,0.4-0.1,0.4h-0.1c-0.3,0-0.6,0.2-0.8,0.5c-0.2,0.3-0.3,0.7-0.3,1.3c0,0.4,0.1,0.8,0.2,1.1c0.2,0.3,0.4,0.4,0.6,0.4
		s0.4-0.1,0.6-0.4s0.2-0.7,0.3-1.4c0.2-1,0.4-1.8,0.7-2.4c0.3-0.8,0.8-1.4,1.3-1.9c0.5-0.5,1.2-0.7,2.1-0.7c1.2,0,2.2,0.5,3,1.5
		c0.7,1,1.1,2.2,1.1,3.8c0,1.1-0.2,2-0.5,2.8c-0.3,0.8-0.8,1.4-1.5,1.9c-0.6,0.4-1.3,0.7-2.2,0.7c-0.1,0-0.1,0-0.2-0.1
		s-0.1-0.2-0.1-0.3v-2.9c0-0.3,0-0.4,0.1-0.4h0.1c0.3,0,0.6-0.1,0.7-0.4c0.2-0.3,0.3-0.7,0.3-1.2c0-0.4-0.1-0.8-0.2-1.1
		s-0.4-0.4-0.6-0.4c-0.3,0-0.5,0.2-0.6,0.5s-0.3,0.8-0.4,1.5c-0.2,1-0.3,1.6-0.5,2c-0.3,1-0.8,1.7-1.3,2.3c-0.5,0.6-1.3,0.8-2.2,0.8
		c-1.2,0-2.2-0.5-2.9-1.5c-0.7-1-1-2.3-1-4C-67.5,1245.4-67.3,1244.4-67,1243.6z"/>
</g>
<path class="st4" d="M-68.6,1086v-22.8L-270,890.3h-11.5v28.4h-11.2v167.2h11.3v11.3h-11.3v45.4h11.3V1256h-11.3v45.4h11.3v11.3
	h-11.3v167.2h11.2v28.3h11.5l201.4-172.9v-22.6c-0.4,0-0.8,0-1.2,0c-1.5,0-3,0-4.5-0.1h5.7v0.1c62.1-0.6,112.2-51.1,112.2-113.4
	S-6.5,1086.6-68.6,1086z M-96.6,1199.3c0,13.3-10.8,24.1-24.1,24.1c-13.3,0-24.1-10.8-24.1-24.1s10.8-24.1,24.1-24.1
	c6.6,0,12.7,2.7,17,7.1C-99.3,1186.6-96.6,1192.6-96.6,1199.3z M-221.7,1063.2h42.5v11.3h-42.5V1063.2z M-269.8,1074.5h42.5v11.3
	h-42.5V1074.5z M-227.3,1324h-42.5v-11.3h42.5V1324z M-236,1209.5c-5.7,0-10.3-4.6-10.3-10.3c0-5.7,4.6-10.3,10.3-10.3
	c5.7,0,10.3,4.6,10.3,10.3C-225.7,1204.9-230.3,1209.5-236,1209.5z M-179.1,1335.3h-42.5V1324h42.5V1335.3z"/>
<path class="st4" d="M-103.6,1182.2c4.4,4.4,7.1,10.4,7.1,17c0,13.3-10.8,24.1-24.1,24.1c-13.3,0-24.1-10.8-24.1-24.1
	s10.8-24.1,24.1-24.1C-114,1175.2-108,1177.9-103.6,1182.2z"/>
<path class="st4" d="M-68.6,1312.7L-68.6,1312.7c-0.4,0.1-0.8,0.1-1.2,0.1c-1.5,0-3,0-4.5-0.1H-68.6z"/>
<g>
	<rect x="-200.4" y="1155.8" width="18" height="18"/>
	<g>
		
			<pattern  id="SVGID_1_" xlink:href="#Burlap" patternTransform="matrix(4.489659e-011 1 -1 4.489659e-011 -16508.1309 -802.2836)">
		</pattern>
		<rect x="-199.4" y="1179.8" class="st7" width="16" height="16"/>
		<path d="M-184.4,1180.8v14h-14v-14H-184.4 M-182.4,1178.8h-18v18h18V1178.8L-182.4,1178.8z"/>
	</g>
	<g>
		
			<pattern  id="SVGID_2_" xlink:href="#Hatching_Dense" patternTransform="matrix(4.489659e-011 1 -1 4.489659e-011 -16504.8008 -824.7113)">
		</pattern>
		<rect x="-199.4" y="1202.8" class="st8" width="16" height="16"/>
		<path d="M-184.4,1203.8v14h-14v-14H-184.4 M-182.4,1201.8h-18v18h18V1201.8L-182.4,1201.8z"/>
	</g>
	<g>
		<path d="M-184.4,1226.8v14h-14v-14H-184.4 M-182.4,1224.8h-18v18h18V1224.8L-182.4,1224.8z"/>
	</g>
</g>
</svg>
